<svg xmlns="http://www.w3.org/2000/svg" viewBox="0 0 160 160" fill="none">
  <defs>
    <linearGradient id="ot-bg" x1="18" y1="16" x2="142" y2="146" gradientUnits="userSpaceOnUse">
      <stop offset="0" stop-color="#FFF4E7" />
      <stop offset="0.54" stop-color="#EEF5F8" />
      <stop offset="1" stop-color="#E4F2EC" />
    </linearGradient>
    <linearGradient id="ot-cover" x1="34" y1="28" x2="126" y2="132" gradientUnits="userSpaceOnUse">
      <stop offset="0" stop-color="#2B857C" />
      <stop offset="1" stop-color="#215F68" />
    </linearGradient>
    <linearGradient id="ot-page" x1="52" y1="48" x2="114" y2="106" gradientUnits="userSpaceOnUse">
      <stop offset="0" stop-color="#FFFDF7" />
      <stop offset="1" stop-color="#F5FBFD" />
    </linearGradient>
    <linearGradient id="ot-accent" x1="86" y1="90" x2="132" y2="136" gradientUnits="userSpaceOnUse">
      <stop offset="0" stop-color="#F6A35B" />
      <stop offset="1" stop-color="#E96D57" />
    </linearGradient>
  </defs>

  <rect x="10" y="10" width="140" height="140" rx="36" fill="url(#ot-bg)" />
  <rect x="30" y="24" width="88" height="108" rx="24" fill="url(#ot-cover)" />
  <path d="M40 38C40 31.373 45.373 26 52 26H68V130H52C45.373 130 40 124.627 40 118V38Z" fill="#1C5057" opacity=".38" />
  <rect x="46" y="42" width="60" height="64" rx="16" fill="url(#ot-page)" />
  <rect x="56" y="56" width="40" height="7" rx="3.5" fill="#2A7A74" opacity=".22" />
  <rect x="56" y="71" width="28" height="7" rx="3.5" fill="#F29A5A" opacity=".72" />
  <rect x="56" y="86" width="34" height="7" rx="3.5" fill="#2A7A74" opacity=".3" />
  <path d="M94 24H106C112.627 24 118 29.373 118 36V54H94V24Z" fill="#F0B16C" opacity=".92" />
  <circle cx="106" cy="108" r="24" fill="url(#ot-accent)" />
  <path d="M95 108L102 115L117 100" stroke="#FFF9F4" stroke-linecap="round" stroke-linejoin="round" stroke-width="7" />
  <circle cx="116" cy="48" r="10" fill="#FDF7EE" opacity=".96" />
  <path d="M116 43V48L119 50" stroke="#225E67" stroke-linecap="round" stroke-linejoin="round" stroke-width="3" />
</svg>
